<svg width="737" height="107" viewBox="0 0 737 107" fill="none" xmlns="http://www.w3.org/2000/svg">
<g clip-path="url(#clip0_0_1322)">
<path d="M13.056 41.496L10.688 43.864V55H3.328V12.056H10.624H11.2V12.632C10.9867 12.888 10.8373 13.1653 10.752 13.464C10.7093 13.7627 10.688 14.2747 10.688 15V35.992L22.08 24.984C22.4213 25.0267 22.784 25.0907 23.168 25.176C23.552 25.2187 23.936 25.2613 24.32 25.304C24.704 25.3467 25.088 25.3893 25.472 25.432C25.856 25.432 26.176 25.432 26.432 25.432H29.888L18.048 37.016L31.488 54.936L23.232 55.256L13.056 41.496ZM49.344 55.704C47.2107 55.704 45.2267 55.3627 43.392 54.68C41.6 53.9973 40.0213 53.016 38.656 51.736C37.3333 50.4133 36.3093 48.792 35.584 46.872C34.8587 44.952 34.496 42.776 34.496 40.344C34.496 37.8693 34.8587 35.6507 35.584 33.688C36.3093 31.7253 37.2907 30.0613 38.528 28.696C39.808 27.3307 41.3013 26.3067 43.008 25.624C44.7147 24.8987 46.5493 24.536 48.512 24.536C50.2613 24.536 51.904 24.8347 53.44 25.432C54.976 26.0293 56.32 26.9467 57.472 28.184C58.6667 29.3787 59.6053 30.8933 60.288 32.728C60.9707 34.52 61.312 36.6107 61.312 39C61.312 39.4267 61.2907 39.9387 61.248 40.536C61.248 41.1333 61.2267 41.6453 61.184 42.072H41.472C41.5573 43.48 41.8347 44.696 42.304 45.72C42.7733 46.7013 43.392 47.512 44.16 48.152C44.928 48.792 45.7813 49.2827 46.72 49.624C47.6587 49.9227 48.64 50.072 49.664 50.072C50.56 50.072 51.4133 49.9867 52.224 49.816C53.0773 49.6453 53.8667 49.3467 54.592 48.92C55.36 48.4933 56.0853 47.9387 56.768 47.256L60.48 50.84C59.5413 51.9493 58.4747 52.888 57.28 53.656C56.128 54.3813 54.8693 54.8933 53.504 55.192C52.1813 55.5333 50.7947 55.704 49.344 55.704ZM41.6 36.632H54.272C54.272 35.608 54.1227 34.6907 53.824 33.88C53.568 33.0693 53.184 32.3867 52.672 31.832C52.16 31.2773 51.52 30.872 50.752 30.616C50.0267 30.3173 49.1733 30.168 48.192 30.168C47.3813 30.168 46.592 30.296 45.824 30.552C45.0987 30.7653 44.4373 31.1493 43.84 31.704C43.2427 32.2587 42.752 32.9413 42.368 33.752C41.984 34.5627 41.728 35.5227 41.6 36.632ZM72.064 66.264C70.656 66.264 69.376 66.008 68.224 65.496C67.1147 65.0267 66.0267 64.3653 64.96 63.512L67.456 58.52L67.712 57.944L68.288 58.2C68.416 58.5413 68.5653 58.8613 68.736 59.16C68.9493 59.4587 69.3333 59.8 69.888 60.184C70.1867 60.3547 70.5067 60.4827 70.848 60.568C71.232 60.6533 71.6373 60.696 72.064 60.696C72.9173 60.696 73.6427 60.4613 74.24 59.992C74.88 59.5227 75.456 58.7973 75.968 57.816C76.5227 56.8347 77.056 55.576 77.568 54.04L84.032 35.8C84.672 33.9653 85.2053 32.1947 85.632 30.488C86.1013 28.7813 86.3787 27.032 86.464 25.24H93.184C93.0133 27.16 92.5653 29.1867 91.84 31.32C91.1147 33.4107 90.3893 35.4373 89.664 37.4L82.304 57.624C81.1093 60.7813 79.6587 63 77.952 64.28C76.288 65.6027 74.3253 66.264 72.064 66.264ZM65.984 25.24H73.216L81.984 47.96L78.208 55.704L65.984 25.24ZM113.856 55.768C112.789 55.768 111.765 55.6187 110.784 55.32C109.803 55.0213 108.885 54.5733 108.032 53.976C107.221 53.336 106.475 52.5893 105.792 51.736L104.576 55H99.072V12.056H106.304H106.944V12.632C106.688 12.888 106.517 13.1653 106.432 13.464C106.389 13.7627 106.368 14.2747 106.368 15V28.568C106.837 27.9707 107.349 27.416 107.904 26.904C108.459 26.392 109.077 25.9653 109.76 25.624C110.443 25.24 111.147 24.9627 111.872 24.792C112.64 24.6213 113.408 24.536 114.176 24.536C116.011 24.536 117.653 24.856 119.104 25.496C120.597 26.136 121.856 27.096 122.88 28.376C123.947 29.6133 124.757 31.1707 125.312 33.048C125.909 34.9253 126.208 37.1227 126.208 39.64C126.208 42.3707 125.867 44.76 125.184 46.808C124.544 48.8133 123.648 50.4773 122.496 51.8C121.344 53.1227 120.021 54.1253 118.528 54.808C117.077 55.448 115.52 55.768 113.856 55.768ZM112.384 50.136C113.28 50.136 114.133 49.9653 114.944 49.624C115.755 49.24 116.459 48.664 117.056 47.896C117.653 47.128 118.123 46.1253 118.464 44.888C118.805 43.608 118.976 42.072 118.976 40.28C118.976 38.6587 118.827 37.208 118.528 35.928C118.229 34.648 117.803 33.5813 117.248 32.728C116.693 31.832 116.011 31.1493 115.2 30.68C114.432 30.2107 113.536 29.976 112.512 29.976C111.275 29.976 110.187 30.3813 109.248 31.192C108.352 31.96 107.669 33.0907 107.2 34.584C106.731 36.0773 106.475 37.8693 106.432 39.96C106.432 41.5813 106.539 43.032 106.752 44.312C107.008 45.5493 107.371 46.616 107.84 47.512C108.352 48.3653 108.971 49.0267 109.696 49.496C110.464 49.9227 111.36 50.136 112.384 50.136ZM143.936 55.64C141.291 55.64 138.88 55 136.704 53.72C134.571 52.3973 132.885 50.5627 131.648 48.216C130.411 45.8693 129.792 43.16 129.792 40.088C129.792 37.144 130.411 34.4987 131.648 32.152C132.885 29.8053 134.571 27.9493 136.704 26.584C138.88 25.2187 141.291 24.536 143.936 24.536C146.624 24.536 149.035 25.2187 151.168 26.584C153.344 27.9493 155.051 29.8053 156.288 32.152C157.568 34.4987 158.208 37.144 158.208 40.088C158.208 43.16 157.568 45.8693 156.288 48.216C155.051 50.5627 153.344 52.3973 151.168 53.72C149.035 55 146.624 55.64 143.936 55.64ZM143.936 49.88C145.344 49.88 146.56 49.4747 147.584 48.664C148.608 47.8107 149.419 46.6587 150.016 45.208C150.656 43.7147 150.976 42.008 150.976 40.088C150.976 38.0827 150.656 36.3547 150.016 34.904C149.419 33.4533 148.608 32.344 147.584 31.576C146.56 30.7653 145.344 30.36 143.936 30.36C142.656 30.36 141.483 30.7653 140.416 31.576C139.392 32.344 138.56 33.4533 137.92 34.904C137.323 36.3547 137.024 38.0827 137.024 40.088C137.024 42.008 137.323 43.7147 137.92 45.208C138.517 46.6587 139.328 47.8107 140.352 48.664C141.419 49.4747 142.613 49.88 143.936 49.88ZM172.672 55.768C169.387 55.768 166.827 55 164.992 53.464C163.2 51.8853 162.304 49.8587 162.304 47.384C162.304 45.8053 162.645 44.3547 163.328 43.032C164.053 41.6667 165.12 40.4933 166.528 39.512C167.936 38.5307 169.685 37.784 171.776 37.272C173.867 36.7173 176.256 36.44 178.944 36.44C179.285 36.44 179.712 36.44 180.224 36.44C180.736 36.44 181.291 36.4613 181.888 36.504C182.485 36.504 183.04 36.5467 183.552 36.632L183.744 41.624C183.317 41.5813 182.805 41.56 182.208 41.56C181.611 41.5173 180.992 41.496 180.352 41.496C179.755 41.4533 179.243 41.432 178.816 41.432C177.109 41.432 175.659 41.56 174.464 41.816C173.312 42.072 172.373 42.4347 171.648 42.904C170.923 43.3307 170.389 43.864 170.048 44.504C169.707 45.1013 169.536 45.7627 169.536 46.488C169.536 47.1707 169.643 47.7467 169.856 48.216C170.112 48.6853 170.432 49.0693 170.816 49.368C171.243 49.624 171.733 49.816 172.288 49.944C172.843 50.072 173.44 50.136 174.08 50.136C175.36 50.136 176.469 49.944 177.408 49.56C178.389 49.1333 179.2 48.472 179.84 47.576C180.523 46.68 181.013 45.5707 181.312 44.248C181.653 42.8827 181.824 41.2827 181.824 39.448C181.824 36.9733 181.568 35.0747 181.056 33.752C180.544 32.4293 179.797 31.512 178.816 31C177.835 30.4453 176.597 30.168 175.104 30.168C173.739 30.168 172.437 30.4027 171.2 30.872C170.005 31.2987 168.832 32.1093 167.68 33.304L163.712 28.952C165.376 27.3733 167.232 26.2427 169.28 25.56C171.328 24.8773 173.376 24.536 175.424 24.536C177.301 24.536 179.051 24.7493 180.672 25.176C182.293 25.6027 183.701 26.328 184.896 27.352C186.133 28.3333 187.093 29.6987 187.776 31.448C188.501 33.1547 188.864 35.288 188.864 37.848V55H181.376V51.8C180.821 52.5253 180.224 53.144 179.584 53.656C178.944 54.168 178.261 54.5733 177.536 54.872C176.811 55.1707 176.043 55.384 175.232 55.512C174.421 55.6827 173.568 55.768 172.672 55.768ZM197.696 25.24H205.184L205.12 33.56L204.288 33.048C204.459 31.7253 204.821 30.552 205.376 29.528C205.973 28.504 206.699 27.608 207.552 26.84C208.448 26.072 209.408 25.496 210.432 25.112C211.499 24.728 212.587 24.536 213.696 24.536C215.36 24.536 216.853 24.8133 218.176 25.368C219.541 25.88 220.8 26.7333 221.952 27.928L218.88 34.008L218.688 34.52L218.112 34.264C217.984 33.9227 217.856 33.5813 217.728 33.24C217.6 32.856 217.28 32.4293 216.768 31.96C216.171 31.4907 215.531 31.128 214.848 30.872C214.208 30.616 213.504 30.488 212.736 30.488C211.712 30.488 210.731 30.6587 209.792 31C208.853 31.3413 208.021 31.8747 207.296 32.6C206.613 33.3253 206.059 34.264 205.632 35.416C205.248 36.5253 205.056 37.848 205.056 39.384V55H197.696V25.24ZM238.464 55.704C236.8 55.704 235.221 55.384 233.728 54.744C232.277 54.104 230.976 53.1227 229.824 51.8C228.672 50.4773 227.755 48.8347 227.072 46.872C226.432 44.9093 226.112 42.6053 226.112 39.96C226.112 37.4 226.432 35.16 227.072 33.24C227.712 31.2773 228.587 29.656 229.696 28.376C230.848 27.0533 232.171 26.072 233.664 25.432C235.157 24.792 236.779 24.472 238.528 24.472C239.509 24.472 240.448 24.6 241.344 24.856C242.283 25.112 243.115 25.496 243.84 26.008C244.608 26.4773 245.227 27.1387 245.696 27.992V12.056H252.8H253.44V12.632C253.184 12.888 253.013 13.1653 252.928 13.464C252.885 13.7627 252.864 14.2747 252.864 15L252.8 51.032C252.8 51.7147 252.843 52.376 252.928 53.016C253.013 53.656 253.205 54.3173 253.504 55H246.4C246.187 54.5307 246.037 54.1467 245.952 53.848C245.867 53.5493 245.803 53.2507 245.76 52.952C245.76 52.6107 245.76 52.2053 245.76 51.736C245.248 52.632 244.608 53.3787 243.84 53.976C243.072 54.5733 242.24 55 241.344 55.256C240.448 55.5547 239.488 55.704 238.464 55.704ZM239.68 49.88C240.661 49.88 241.515 49.688 242.24 49.304C243.008 48.8773 243.627 48.2587 244.096 47.448C244.608 46.6373 244.971 45.6133 245.184 44.376C245.44 43.096 245.568 41.6453 245.568 40.024C245.568 37.8053 245.355 35.9707 244.928 34.52C244.501 33.0267 243.84 31.9173 242.944 31.192C242.048 30.4667 240.896 30.104 239.488 30.104C238.507 30.104 237.611 30.3387 236.8 30.808C235.989 31.2347 235.328 31.8747 234.816 32.728C234.304 33.5813 233.899 34.6053 233.6 35.8C233.344 36.9947 233.216 38.3387 233.216 39.832C233.216 41.9227 233.493 43.7147 234.048 45.208C234.645 46.7013 235.435 47.8533 236.416 48.664C237.397 49.4747 238.485 49.88 239.68 49.88Z" fill="#2D2D2D"/>
<path d="M9.01136 82.7273L3.38636 103.625H1.54545L7.17045 82.7273H9.01136ZM12.5547 82.7273V87.5H10.782V82.7273H12.5547ZM17.4893 96.2273L17.4553 93.7386H17.8643L23.5916 87.9091H26.0803L19.978 94.0795H19.8075L17.4893 96.2273ZM15.6143 101V83.5455H17.6257V101H15.6143ZM23.9325 101L18.8189 94.5227L20.2507 93.125L26.4893 101H23.9325ZM28.669 101V87.9091H30.6804V101H28.669ZM29.6918 85.7273C29.2997 85.7273 28.9616 85.5938 28.6776 85.3267C28.3991 85.0597 28.2599 84.7386 28.2599 84.3636C28.2599 83.9886 28.3991 83.6676 28.6776 83.4006C28.9616 83.1335 29.2997 83 29.6918 83C30.0838 83 30.419 83.1335 30.6974 83.4006C30.9815 83.6676 31.1236 83.9886 31.1236 84.3636C31.1236 84.7386 30.9815 85.0597 30.6974 85.3267C30.419 85.5938 30.0838 85.7273 29.6918 85.7273ZM34.0916 88.3182H37.3984L35.8643 90.9091H35.6257L34.0916 88.3182ZM34.0916 101L35.6257 98.4091H35.8643L37.3984 101H34.0916ZM41.0355 101V83.5455H43.0469V89.9886H43.2173C43.3651 89.7614 43.5696 89.4716 43.831 89.1193C44.098 88.7614 44.4787 88.4432 44.973 88.1648C45.473 87.8807 46.1491 87.7386 47.0014 87.7386C48.1037 87.7386 49.0753 88.0142 49.9162 88.5653C50.7571 89.1165 51.4134 89.8977 51.8849 90.9091C52.3565 91.9205 52.5923 93.1136 52.5923 94.4886C52.5923 95.875 52.3565 97.0767 51.8849 98.0938C51.4134 99.1051 50.7599 99.8892 49.9247 100.446C49.0895 100.997 48.1264 101.273 47.0355 101.273C46.1946 101.273 45.5213 101.134 45.0156 100.855C44.5099 100.571 44.1207 100.25 43.848 99.892C43.5753 99.5284 43.3651 99.2273 43.2173 98.9886H42.9787V101H41.0355ZM43.0128 94.4545C43.0128 95.4432 43.1577 96.3153 43.4474 97.071C43.7372 97.821 44.1605 98.4091 44.7173 98.8352C45.2741 99.2557 45.956 99.4659 46.7628 99.4659C47.6037 99.4659 48.3054 99.2443 48.8679 98.8011C49.4361 98.3523 49.8622 97.75 50.1463 96.9943C50.4361 96.233 50.581 95.3864 50.581 94.4545C50.581 93.5341 50.4389 92.7045 50.1548 91.9659C49.8764 91.2216 49.4531 90.6335 48.8849 90.2017C48.3224 89.7642 47.6151 89.5455 46.7628 89.5455C45.9446 89.5455 45.2571 89.7528 44.7003 90.1676C44.1435 90.5767 43.723 91.1506 43.4389 91.8892C43.1548 92.6222 43.0128 93.4773 43.0128 94.4545ZM54.919 96.9773H57.1349C57.1804 97.4205 57.331 97.8239 57.5866 98.1875C57.848 98.5455 58.1918 98.8324 58.6179 99.0483C59.0497 99.2585 59.544 99.3636 60.1009 99.3636C60.9304 99.3636 61.5838 99.142 62.0611 98.6989C62.5384 98.25 62.8764 97.6847 63.0753 97.0028C63.2741 96.3153 63.3736 95.6136 63.3736 94.8977V94.25C63.3736 93.4773 63.2685 92.7386 63.0582 92.0341C62.8537 91.3239 62.5071 90.7443 62.0185 90.2955C61.5355 89.8409 60.8793 89.6136 60.0497 89.6136C59.1293 89.6136 58.4304 89.9006 57.9531 90.4744C57.4759 91.0426 57.2031 91.7784 57.1349 92.6818H54.919C54.9645 91.7159 55.1946 90.8608 55.6094 90.1165C56.0298 89.3722 56.6151 88.7898 57.3651 88.3693C58.1151 87.9489 59.0099 87.7386 60.0497 87.7386C61.3054 87.7386 62.3509 88.0369 63.1861 88.6335C64.0213 89.2244 64.6463 90.0142 65.0611 91.0028C65.4815 91.9858 65.6918 93.0682 65.6918 94.25V94.8977C65.6918 96.0227 65.4759 97.0682 65.044 98.0341C64.6179 98.9943 63.9901 99.7699 63.1605 100.361C62.331 100.946 61.3168 101.239 60.1179 101.239C59.1236 101.239 58.2429 101.037 57.4759 100.634C56.7145 100.23 56.1094 99.7045 55.6605 99.0568C55.2116 98.4091 54.9645 97.7159 54.919 96.9773ZM68.3572 88.3182H71.6641L70.13 90.9091H69.8913L68.3572 88.3182ZM68.3572 101L69.8913 98.4091H70.13L71.6641 101H68.3572ZM79.9716 101.273C78.8807 101.273 77.9176 100.997 77.0824 100.446C76.2472 99.8892 75.5938 99.1051 75.1222 98.0938C74.6506 97.0767 74.4148 95.875 74.4148 94.4886C74.4148 93.1136 74.6506 91.9205 75.1222 90.9091C75.5938 89.8977 76.25 89.1165 77.0909 88.5653C77.9318 88.0142 78.9034 87.7386 80.0057 87.7386C80.858 87.7386 81.5313 87.8807 82.0256 88.1648C82.5256 88.4432 82.9063 88.7614 83.1676 89.1193C83.4347 89.4716 83.642 89.7614 83.7898 89.9886H83.9602V83.5455H85.9716V101H84.0284V98.9886H83.7898C83.642 99.2273 83.4318 99.5284 83.1591 99.892C82.8864 100.25 82.4972 100.571 81.9915 100.855C81.4858 101.134 80.8125 101.273 79.9716 101.273ZM80.2443 99.4659C81.0511 99.4659 81.733 99.2557 82.2898 98.8352C82.8466 98.4091 83.2699 97.821 83.5597 97.071C83.8494 96.3153 83.9943 95.4432 83.9943 94.4545C83.9943 93.4773 83.8523 92.6222 83.5682 91.8892C83.2841 91.1506 82.8636 90.5767 82.3068 90.1676C81.75 89.7528 81.0625 89.5455 80.2443 89.5455C79.392 89.5455 78.6818 89.7642 78.1136 90.2017C77.5511 90.6335 77.1278 91.2216 76.8438 91.9659C76.5653 92.7045 76.4261 93.5341 76.4261 94.4545C76.4261 95.3864 76.5682 96.233 76.8523 96.9943C77.142 97.75 77.5682 98.3523 78.1307 98.8011C78.6989 99.2443 79.4034 99.4659 80.2443 99.4659ZM96.1051 82.7273L90.4801 103.625H88.6392L94.2642 82.7273H96.1051Z" fill="#A445ED"/>
<circle opacity="0.25" cx="699.5" cy="50.5" r="37.5" fill="#A445ED"/>
<path fill-rule="evenodd" clip-rule="evenodd" d="M691 40V61L712 50.5L691 40Z" fill="#A445ED"/>
</g>
<defs>
<clipPath id="clip0_0_1322">
<rect width="737" height="107" fill="white"/>
</clipPath>
</defs>
</svg>
